GSerif01-TextBold02.ufo
<glyph name="comma" format="1">
  <advance width="283"/>
  <unicode hex="002C"/>
  <outline>
    <contour>
      <point x="148" y="-132" type="line"/>
      <point x="178" y="-91"/>
      <point x="209" y="-23"/>
      <point x="209" y="45" type="curve" smooth="yes"/>
      <point x="209" y="96"/>
      <point x="181" y="122"/>
      <point x="140" y="122" type="curve" smooth="yes"/>
      <point x="104" y="122"/>
      <point x="77" y="96"/>
      <point x="77" y="59" type="curve" smooth="yes"/>
      <point x="77" y="20"/>
      <point x="107" y="-9"/>
      <point x="160" y="-2" type="curve"/>
      <point x="149" y="8"/>
      <point x="156" y="17"/>
      <point x="143" y="11" type="curve"/>
      <point x="142" y="-31"/>
      <point x="106" y="-85"/>
      <point x="71" y="-132" type="curve"/>
    </contour>
  </outline>
</glyph>
<glyph name="three" format="1">
  <advance width="670"/>
  <unicode hex="0033"/>
  <outline>
    <contour>
      <point x="400" y="381" type="line"/>
      <point x="541" y="381"/>
      <point x="633" y="319"/>
      <point x="633" y="208" type="curve" smooth="yes"/>
      <point x="633" y="60"/>
      <point x="500" y="-10"/>
      <point x="345" y="-10" type="curve" smooth="yes"/>
      <point x="173" y="-10"/>
      <point x="52" y="68"/>
      <point x="34" y="226" type="curve"/>
      <point x="203" y="226" type="line"/>
      <point x="213" y="128"/>
      <point x="262" y="88"/>
      <point x="337" y="88" type="curve" smooth="yes"/>
      <point x="407" y="88"/>
      <point x="461" y="125"/>
      <point x="461" y="217" type="curve" smooth="yes"/>
      <point x="461" y="304"/>
      <point x="410" y="330"/>
      <point x="325" y="330" type="curve" smooth="yes"/>
      <point x="238" y="330" type="line"/>
      <point x="238" y="407" type="line"/>
      <point x="315" y="407" type="line" smooth="yes"/>
      <point x="392" y="407"/>
      <point x="431" y="449"/>
      <point x="431" y="520" type="curve" smooth="yes"/>
      <point x="431" y="587"/>
      <point x="400" y="622"/>
      <point x="340" y="622" type="curve" smooth="yes"/>
      <point x="272" y="622"/>
      <point x="236" y="578"/>
      <point x="227" y="499" type="curve"/>
      <point x="63" y="499" type="line"/>
      <point x="79" y="635"/>
      <point x="188" y="720"/>
      <point x="346" y="720" type="curve" smooth="yes"/>
      <point x="504" y="720"/>
      <point x="597" y="648"/>
      <point x="597" y="536" type="curve" smooth="yes"/>
      <point x="597" y="435"/>
      <point x="513" y="370"/>
      <point x="378" y="370" type="curve"/>
    </contour>
  </outline>
</glyph>
<glyph name="four" format="1">
  <advance width="651"/>
  <unicode hex="0034"/>
  <outline>
    <contour>
      <point x="255" y="95" type="line"/>
      <point x="255" y="0" type="line"/>
      <point x="627" y="0" type="line"/>
      <point x="627" y="95" type="line"/>
      <point x="522" y="95" type="line"/>
      <point x="522" y="95" type="line"/>
      <point x="361" y="95" type="line"/>
      <point x="361" y="95" type="line"/>
    </contour>
    <contour>
      <point x="361" y="710" type="line"/>
      <point x="361" y="0" type="line"/>
      <point x="522" y="0" type="line"/>
      <point x="522" y="710" type="line"/>
    </contour>
    <contour>
      <point x="24" y="208" type="line"/>
      <point x="633" y="208" type="line"/>
      <point x="633" y="298" type="line"/>
      <point x="91" y="298" type="line"/>
      <point x="111" y="253" type="line"/>
      <point x="406" y="654" type="line"/>
      <point x="446" y="710" type="line"/>
      <point x="333" y="710" type="line"/>
      <point x="24" y="285" type="line"/>
    </contour>
  </outline>
</glyph>
<glyph name="F" format="1">
  <advance width="645"/>
  <unicode hex="0046"/>
  <outline>
    <contour>
      <point x="118" y="0" type="line"/>
      <point x="291" y="0" type="line"/>
      <point x="291" y="710" type="line"/>
      <point x="118" y="710" type="line"/>
    </contour>
    <contour>
      <point x="231" y="383" type="line"/>
      <point x="231" y="319" type="line"/>
      <point x="492" y="319" type="line"/>
      <point x="492" y="383" type="line"/>
    </contour>
    <contour>
      <point x="605" y="710" type="line"/>
      <point x="37" y="710" type="line"/>
      <point x="37" y="649" type="line"/>
      <point x="41" y="649" type="line" smooth="yes"/>
      <point x="82" y="648"/>
      <point x="118" y="642"/>
      <point x="118" y="613" type="curve"/>
      <point x="175" y="642" type="line"/>
      <point x="379" y="642" type="line" smooth="yes"/>
      <point x="474" y="642"/>
      <point x="513" y="634"/>
      <point x="519" y="597" type="curve" smooth="yes"/>
      <point x="538" y="491" type="line"/>
      <point x="605" y="491" type="line"/>
    </contour>
    <contour>
      <point x="37" y="0" type="line"/>
      <point x="391" y="0" type="line"/>
      <point x="391" y="60" type="line"/>
      <point x="383" y="60" type="line" smooth="yes"/>
      <point x="338" y="61"/>
      <point x="291" y="63"/>
      <point x="291" y="81" type="curve"/>
      <point x="118" y="96" type="line"/>
      <point x="118" y="67"/>
      <point x="82" y="61"/>
      <point x="41" y="60" type="curve" smooth="yes"/>
      <point x="37" y="60" type="line"/>
    </contour>
  </outline>
</glyph>
<glyph name="G" format="1">
  <advance width="823"/>
  <unicode hex="0047"/>
  <outline>
    <contour>
      <point x="232" y="354" type="curve" smooth="yes"/>
      <point x="232" y="530"/>
      <point x="312" y="646"/>
      <point x="438" y="646" type="curve" smooth="yes"/>
      <point x="518" y="646"/>
      <point x="575" y="606"/>
      <point x="598" y="551" type="curve"/>
      <point x="606" y="593"/>
      <point x="582" y="618"/>
      <point x="558" y="617" type="curve"/>
      <point x="558" y="482" type="line"/>
      <point x="726" y="482" type="line"/>
      <point x="726" y="606" type="line"/>
      <point x="683" y="662"/>
      <point x="582" y="721"/>
      <point x="432" y="721" type="curve" smooth="yes"/>
      <point x="205" y="721"/>
      <point x="42" y="569"/>
      <point x="42" y="354" type="curve" smooth="yes"/>
      <point x="42" y="136"/>
      <point x="185" y="-11"/>
      <point x="427" y="-11" type="curve" smooth="yes"/>
      <point x="567" y="-11"/>
      <point x="688" y="50"/>
      <point x="731" y="103" type="curve"/>
      <point x="731" y="306" type="line"/>
      <point x="568" y="314" type="line"/>
      <point x="568" y="115" type="line"/>
      <point x="546" y="95"/>
      <point x="500" y="66"/>
      <point x="437" y="66" type="curve" smooth="yes"/>
      <point x="299" y="66"/>
      <point x="232" y="176"/>
    </contour>
    <contour>
      <point x="731" y="256" type="line"/>
      <point x="731" y="285"/>
      <point x="766" y="291"/>
      <point x="799" y="292" type="curve" smooth="yes"/>
      <point x="801" y="292" type="line"/>
      <point x="801" y="352" type="line"/>
      <point x="483" y="352" type="line"/>
      <point x="483" y="292" type="line"/>
      <point x="487" y="292" type="line" smooth="yes"/>
      <point x="531" y="291"/>
      <point x="568" y="285"/>
      <point x="568" y="256" type="curve"/>
    </contour>
  </outline>
</glyph>
<glyph name="L" format="1">
  <advance width="660"/>
  <unicode hex="004C"/>
  <outline>
    <contour>
      <point x="118" y="0" type="line"/>
      <point x="291" y="0" type="line"/>
      <point x="291" y="710" type="line"/>
      <point x="118" y="710" type="line"/>
    </contour>
    <contour>
      <point x="37" y="0" type="line"/>
      <point x="622" y="0" type="line"/>
      <point x="622" y="247" type="line"/>
      <point x="552" y="247" type="line"/>
      <point x="533" y="113" type="line" smooth="yes"/>
      <point x="528" y="76"/>
      <point x="488" y="68"/>
      <point x="393" y="68" type="curve" smooth="yes"/>
      <point x="166" y="68" type="line"/>
      <point x="118" y="96" type="line"/>
      <point x="118" y="67"/>
      <point x="82" y="61"/>
      <point x="41" y="60" type="curve" smooth="yes"/>
      <point x="37" y="60" type="line"/>
    </contour>
    <contour>
      <point x="375" y="710" type="line"/>
      <point x="37" y="710" type="line"/>
      <point x="37" y="650" type="line"/>
      <point x="41" y="650" type="line" smooth="yes"/>
      <point x="82" y="649"/>
      <point x="118" y="643"/>
      <point x="118" y="614" type="curve"/>
      <point x="291" y="618" type="line"/>
      <point x="291" y="643"/>
      <point x="329" y="649"/>
      <point x="371" y="650" type="curve" smooth="yes"/>
      <point x="375" y="650" type="line"/>
    </contour>
  </outline>
</glyph>
<glyph name="N" format="1">
  <advance width="793"/>
  <unicode hex="004E"/>
  <outline>
    <contour>
      <point x="37" y="0" type="line"/>
      <point x="281" y="0" type="line"/>
      <point x="281" y="60" type="line"/>
      <point x="273" y="60" type="line"/>
      <point x="237" y="61"/>
      <point x="194" y="67"/>
      <point x="194" y="80" type="curve"/>
      <point x="118" y="106" type="line"/>
      <point x="118" y="72"/>
      <point x="82" y="61"/>
      <point x="42" y="60" type="curve"/>
      <point x="37" y="60" type="line"/>
    </contour>
    <contour>
      <point x="759" y="710" type="line"/>
      <point x="515" y="710" type="line"/>
      <point x="515" y="650" type="line"/>
      <point x="523" y="650" type="line"/>
      <point x="560" y="649"/>
      <point x="603" y="643"/>
      <point x="603" y="630" type="curve"/>
      <point x="678" y="604" type="line"/>
      <point x="678" y="638"/>
      <point x="714" y="649"/>
      <point x="754" y="650" type="curve"/>
      <point x="759" y="650" type="line"/>
    </contour>
    <contour>
      <point x="37" y="710" type="line"/>
      <point x="37" y="650" type="line"/>
      <point x="42" y="650" type="line"/>
      <point x="81" y="649"/>
      <point x="118" y="643"/>
      <point x="118" y="614" type="curve"/>
      <point x="118" y="0" type="line"/>
      <point x="194" y="0" type="line"/>
      <point x="194" y="696" type="line"/>
      <point x="162" y="658" type="line"/>
      <point x="524" y="0" type="line"/>
      <point x="678" y="0" type="line"/>
      <point x="678" y="710" type="line"/>
      <point x="603" y="710" type="line"/>
      <point x="603" y="65" type="line"/>
      <point x="641" y="106" type="line"/>
      <point x="308" y="710" type="line"/>
    </contour>
  </outline>
</glyph>
<glyph name="T" format="1">
  <advance width="730"/>
  <unicode hex="0054"/>
  <outline>
    <contour>
      <point x="278" y="0" type="line"/>
      <point x="452" y="0" type="line"/>
      <point x="452" y="710" type="line"/>
      <point x="278" y="710" type="line"/>
    </contour>
    <contour>
      <point x="485" y="642" type="line" smooth="yes"/>
      <point x="571" y="642"/>
      <point x="607" y="634"/>
      <point x="612" y="597" type="curve" smooth="yes"/>
      <point x="631" y="480" type="line"/>
      <point x="697" y="480" type="line"/>
      <point x="697" y="710" type="line"/>
      <point x="33" y="710" type="line"/>
      <point x="33" y="480" type="line"/>
      <point x="99" y="480" type="line"/>
      <point x="118" y="597" type="line" smooth="yes"/>
      <point x="123" y="634"/>
      <point x="159" y="642"/>
      <point x="245" y="642" type="curve" smooth="yes"/>
    </contour>
    <contour>
      <point x="278" y="96" type="line"/>
      <point x="278" y="67"/>
      <point x="242" y="61"/>
      <point x="202" y="60" type="curve" smooth="yes"/>
      <point x="195" y="60" type="line"/>
      <point x="195" y="0" type="line"/>
      <point x="535" y="0" type="line"/>
      <point x="535" y="60" type="line"/>
      <point x="528" y="60" type="line" smooth="yes"/>
      <point x="488" y="61"/>
      <point x="452" y="67"/>
      <point x="452" y="96" type="curve"/>
    </contour>
  </outline>
</glyph>
<glyph name="e" format="1">
  <advance width="624"/>
  <unicode hex="0065"/>
  <outline>
    <contour>
      <point x="202" y="268" type="curve" smooth="yes"/>
      <point x="202" y="409"/>
      <point x="254" y="483"/>
      <point x="322" y="483" type="curve"/>
      <point x="393" y="483"/>
      <point x="422" y="423"/>
      <point x="425" y="284" type="curve"/>
      <point x="487" y="304" type="line"/>
      <point x="137" y="304" type="line"/>
      <point x="138" y="244" type="line"/>
      <point x="589" y="244" type="line"/>
      <point x="589" y="445"/>
      <point x="495" y="552"/>
      <point x="322" y="552" type="curve"/>
      <point x="163" y="552"/>
      <point x="39" y="444"/>
      <point x="39" y="270" type="curve" smooth="yes"/>
      <point x="39" y="92"/>
      <point x="165" y="-12"/>
      <point x="339" y="-12" type="curve" smooth="yes"/>
      <point x="459" y="-12"/>
      <point x="546" y="42"/>
      <point x="585" y="122" type="curve"/>
      <point x="517" y="155" type="line"/>
      <point x="492" y="109"/>
      <point x="443" y="58"/>
      <point x="359" y="58" type="curve" smooth="yes"/>
      <point x="262" y="58"/>
      <point x="202" y="132"/>
    </contour>
  </outline>
</glyph>
<glyph name="h" format="1">
  <advance width="706"/>
  <unicode hex="0068"/>
  <outline>
    <contour>
      <point x="33" y="0" type="line"/>
      <point x="321" y="0" type="line"/>
      <point x="321" y="52" type="line"/>
      <point x="321" y="52" type="line"/>
      <point x="299" y="53"/>
      <point x="264" y="56"/>
      <point x="264" y="62" type="curve"/>
      <point x="106" y="89" type="line"/>
      <point x="106" y="60"/>
      <point x="70" y="54"/>
      <point x="34" y="52" type="curve"/>
      <point x="33" y="52" type="line"/>
    </contour>
    <contour>
      <point x="33" y="750" type="line"/>
      <point x="33" y="695" type="line"/>
      <point x="43" y="693" type="line" smooth="yes"/>
      <point x="81" y="684"/>
      <point x="106" y="677"/>
      <point x="106" y="648" type="curve" smooth="yes"/>
      <point x="106" y="0" type="line"/>
      <point x="264" y="0" type="line"/>
      <point x="264" y="750" type="line"/>
    </contour>
    <contour>
      <point x="684" y="0" type="line"/>
      <point x="684" y="52" type="line"/>
      <point x="683" y="52" type="line"/>
      <point x="647" y="54"/>
      <point x="612" y="60"/>
      <point x="612" y="89" type="curve"/>
      <point x="454" y="62" type="line"/>
      <point x="454" y="56"/>
      <point x="419" y="53"/>
      <point x="396" y="52" type="curve"/>
      <point x="396" y="52" type="line"/>
      <point x="396" y="0" type="line"/>
    </contour>
    <contour>
      <point x="454" y="0" type="line"/>
      <point x="612" y="0" type="line"/>
      <point x="612" y="384" type="line" smooth="yes"/>
      <point x="612" y="499"/>
      <point x="541" y="552"/>
      <point x="437" y="552" type="curve" smooth="yes"/>
      <point x="335" y="552"/>
      <point x="273" y="501"/>
      <point x="207" y="387" type="curve"/>
      <point x="209" y="381"/>
      <point x="234" y="355"/>
      <point x="234" y="357" type="curve"/>
      <point x="278" y="432"/>
      <point x="327" y="473"/>
      <point x="384" y="473" type="curve" smooth="yes"/>
      <point x="437" y="473"/>
      <point x="454" y="446"/>
      <point x="454" y="381" type="curve" smooth="yes"/>
    </contour>
  </outline>
</glyph>
<glyph name="l" format="1">
  <advance width="362"/>
  <unicode hex="006C"/>
  <outline>
    <contour>
      <point x="33" y="750" type="line"/>
      <point x="33" y="696" type="line"/>
      <point x="43" y="694" type="line" smooth="yes"/>
      <point x="81" y="685"/>
      <point x="105" y="678"/>
      <point x="105" y="649" type="curve" smooth="yes"/>
      <point x="105" y="0" type="line"/>
      <point x="264" y="0" type="line"/>
      <point x="264" y="750" type="line"/>
    </contour>
    <contour>
      <point x="335" y="0" type="line"/>
      <point x="335" y="52" type="line"/>
      <point x="335" y="52" type="line"/>
      <point x="299" y="54"/>
      <point x="264" y="60"/>
      <point x="264" y="89" type="curve"/>
      <point x="105" y="89" type="line"/>
      <point x="105" y="60"/>
      <point x="70" y="54"/>
      <point x="34" y="52" type="curve"/>
      <point x="33" y="52" type="line"/>
      <point x="33" y="0" type="line"/>
    </contour>
  </outline>
</glyph>
<glyph name="u" format="1">
  <advance width="692"/>
  <unicode hex="0075"/>
  <outline>
    <contour>
      <point x="439" y="111" type="line"/>
      <point x="447" y="99" type="line"/>
      <point x="447" y="0" type="line"/>
      <point x="670" y="0" type="line"/>
      <point x="670" y="54" type="line"/>
      <point x="664" y="55" type="line"/>
      <point x="627" y="60"/>
      <point x="597" y="67"/>
      <point x="597" y="96" type="curve"/>
      <point x="597" y="542" type="line"/>
      <point x="359" y="542" type="line"/>
      <point x="359" y="487" type="line"/>
      <point x="376" y="485" type="line" smooth="yes"/>
      <point x="415" y="479"/>
      <point x="439" y="469"/>
      <point x="439" y="440" type="curve" smooth="yes"/>
    </contour>
    <contour>
      <point x="254" y="542" type="line"/>
      <point x="23" y="542" type="line"/>
      <point x="23" y="487" type="line"/>
      <point x="34" y="485" type="line" smooth="yes"/>
      <point x="72" y="476"/>
      <point x="96" y="469"/>
      <point x="96" y="440" type="curve" smooth="yes"/>
      <point x="96" y="157" type="line"/>
      <point x="96" y="41"/>
      <point x="167" y="-12"/>
      <point x="269" y="-12" type="curve" smooth="yes"/>
      <point x="369" y="-12"/>
      <point x="430" y="40"/>
      <point x="497" y="154" type="curve"/>
      <point x="495" y="161"/>
      <point x="469" y="186"/>
      <point x="469" y="184" type="curve"/>
      <point x="425" y="109"/>
      <point x="378" y="67"/>
      <point x="322" y="67" type="curve" smooth="yes"/>
      <point x="271" y="67"/>
      <point x="254" y="94"/>
      <point x="254" y="160" type="curve" smooth="yes"/>
    </contour>
  </outline>
</glyph>
<glyph name="v" format="1">
  <advance width="624"/>
  <unicode hex="0076"/>
  <outline>
    <contour>
      <point x="7" y="542" type="line"/>
      <point x="7" y="490" type="line"/>
      <point x="8" y="490" type="line"/>
      <point x="36" y="488"/>
      <point x="60" y="483"/>
      <point x="71" y="453" type="curve"/>
      <point x="225" y="481" type="line"/>
      <point x="225" y="487"/>
      <point x="260" y="489"/>
      <point x="291" y="490" type="curve"/>
      <point x="292" y="490" type="line"/>
      <point x="292" y="542" type="line"/>
    </contour>
    <contour>
      <point x="359" y="0" type="line"/>
      <point x="376" y="45" type="line"/>
      <point x="204" y="542" type="line"/>
      <point x="39" y="542" type="line"/>
      <point x="234" y="0" type="line"/>
    </contour>
    <contour>
      <point x="392" y="0" type="line"/>
      <point x="585" y="542" type="line"/>
      <point x="508" y="542" type="line"/>
      <point x="335" y="44" type="line"/>
      <point x="331" y="0" type="line"/>
    </contour>
    <contour>
      <point x="616" y="542" type="line"/>
      <point x="421" y="542" type="line"/>
      <point x="421" y="490" type="line"/>
      <point x="421" y="490" type="line"/>
      <point x="453" y="489"/>
      <point x="484" y="481"/>
      <point x="484" y="472" type="curve"/>
      <point x="551" y="445" type="line"/>
      <point x="563" y="479"/>
      <point x="590" y="488"/>
      <point x="616" y="490" type="curve"/>
      <point x="616" y="490" type="line"/>
    </contour>
  </outline>
</glyph>
<glyph name="quoteright" format="1">
  <advance width="256"/>
  <unicode hex="2019"/>
  <outline>
    <contour>
      <point x="136" y="486" type="curve"/>
      <point x="161" y="519"/>
      <point x="191" y="583"/>
      <point x="191" y="644" type="curve" smooth="yes"/>
      <point x="191" y="691"/>
      <point x="164" y="715"/>
      <point x="127" y="715" type="curve" smooth="yes"/>
      <point x="92" y="715"/>
      <point x="67" y="691"/>
      <point x="67" y="657" type="curve" smooth="yes"/>
      <point x="67" y="622"/>
      <point x="95" y="595"/>
      <point x="144" y="601" type="curve"/>
      <point x="134" y="611"/>
      <point x="141" y="618"/>
      <point x="129" y="613" type="curve"/>
      <point x="129" y="578"/>
      <point x="97" y="527"/>
      <point x="67" y="486" type="curve"/>
      <point x="77" y="486"/>
      <point x="126" y="486"/>
    </contour>
  </outline>
</glyph>
<glyph name="C.alt" format="1">
  <advance width="776"/>
  <outline>
    <contour>
      <point x="43" y="354" type="curve" smooth="yes"/>
      <point x="43" y="136"/>
      <point x="204" y="-11"/>
      <point x="422" y="-11" type="curve" smooth="yes"/>
      <point x="596" y="-11"/>
      <point x="716" y="86"/>
      <point x="749" y="223" type="curve"/>
      <point x="627" y="260" type="line"/>
      <point x="603" y="174"/>
      <point x="542" y="104"/>
      <point x="435" y="104" type="curve" smooth="yes"/>
      <point x="311" y="104"/>
      <point x="232" y="203"/>
      <point x="232" y="354" type="curve" smooth="yes"/>
      <point x="232" y="507"/>
      <point x="309" y="609"/>
      <point x="433" y="609" type="curve" smooth="yes"/>
      <point x="512" y="609"/>
      <point x="569" y="574"/>
      <point x="594" y="519" type="curve"/>
      <point x="602" y="558"/>
      <point x="578" y="579"/>
      <point x="554" y="578" type="curve"/>
      <point x="554" y="471" type="line"/>
      <point x="722" y="471" type="line"/>
      <point x="722" y="612" type="line"/>
      <point x="679" y="666"/>
      <point x="578" y="721"/>
      <point x="429" y="721" type="curve" smooth="yes"/>
      <point x="202" y="721"/>
      <point x="43" y="569"/>
    </contour>
  </outline>
</glyph>
<glyph name="F.alt" format="1">
  <advance width="653"/>
  <outline>
    <contour>
      <point x="118" y="0" type="line"/>
      <point x="291" y="0" type="line"/>
      <point x="291" y="710" type="line"/>
      <point x="118" y="710" type="line"/>
    </contour>
    <contour>
      <point x="37" y="710" type="line"/>
      <point x="37" y="648" type="line"/>
      <point x="41" y="648" type="line" smooth="yes"/>
      <point x="82" y="647"/>
      <point x="118" y="641"/>
      <point x="118" y="612" type="curve"/>
      <point x="175" y="642" type="line"/>
      <point x="388" y="642" type="line" smooth="yes"/>
      <point x="482" y="642"/>
      <point x="521" y="634"/>
      <point x="528" y="597" type="curve" smooth="yes"/>
      <point x="546" y="491" type="line"/>
      <point x="612" y="491" type="line"/>
      <point x="612" y="710" type="line"/>
    </contour>
    <contour>
      <point x="37" y="0" type="line"/>
      <point x="391" y="0" type="line"/>
      <point x="391" y="61" type="line"/>
      <point x="383" y="61" type="line" smooth="yes"/>
      <point x="338" y="62"/>
      <point x="291" y="64"/>
      <point x="291" y="81" type="curve"/>
      <point x="118" y="97" type="line"/>
      <point x="118" y="68"/>
      <point x="82" y="62"/>
      <point x="41" y="61" type="curve" smooth="yes"/>
      <point x="37" y="61" type="line"/>
    </contour>
    <contour>
      <point x="233" y="381" type="line"/>
      <point x="233" y="317" type="line"/>
      <point x="488" y="317" type="line"/>
      <point x="487" y="381" type="line"/>
    </contour>
    <contour>
      <point x="503" y="247" type="line"/>
      <point x="503" y="452" type="line"/>
      <point x="448" y="452" type="line"/>
      <point x="448" y="450" type="line"/>
      <point x="448" y="409"/>
      <point x="440" y="381"/>
      <point x="411" y="381" type="curve"/>
      <point x="411" y="317" type="line"/>
      <point x="440" y="317"/>
      <point x="448" y="290"/>
      <point x="448" y="250" type="curve"/>
      <point x="448" y="247" type="line"/>
    </contour>
  </outline>
</glyph>
<glyph name="G.alt" format="1">
  <advance width="825"/>
  <outline>
    <contour>
      <point x="233" y="354" type="curve" smooth="yes"/>
      <point x="233" y="507"/>
      <point x="313" y="608"/>
      <point x="438" y="608" type="curve" smooth="yes"/>
      <point x="518" y="608"/>
      <point x="577" y="573"/>
      <point x="602" y="518" type="curve"/>
      <point x="610" y="558"/>
      <point x="586" y="580"/>
      <point x="562" y="579" type="curve"/>
      <point x="562" y="470" type="line"/>
      <point x="730" y="470" type="line"/>
      <point x="730" y="612" type="line"/>
      <point x="686" y="665"/>
      <point x="585" y="721"/>
      <point x="434" y="721" type="curve" smooth="yes"/>
      <point x="206" y="721"/>
      <point x="43" y="569"/>
      <point x="43" y="354" type="curve" smooth="yes"/>
      <point x="43" y="136"/>
      <point x="187" y="-11"/>
      <point x="429" y="-11" type="curve" smooth="yes"/>
      <point x="570" y="-11"/>
      <point x="692" y="50"/>
      <point x="735" y="103" type="curve"/>
      <point x="735" y="312" type="line"/>
      <point x="572" y="320" type="line"/>
      <point x="572" y="152" type="line"/>
      <point x="549" y="131"/>
      <point x="501" y="103"/>
      <point x="433" y="103" type="curve" smooth="yes"/>
      <point x="298" y="103"/>
      <point x="233" y="199"/>
    </contour>
    <contour>
      <point x="735" y="243" type="line"/>
      <point x="735" y="272"/>
      <point x="770" y="278"/>
      <point x="803" y="279" type="curve" smooth="yes"/>
      <point x="805" y="279" type="line"/>
      <point x="805" y="365" type="line"/>
      <point x="487" y="365" type="line"/>
      <point x="487" y="279" type="line"/>
      <point x="491" y="279" type="line" smooth="yes"/>
      <point x="535" y="278"/>
      <point x="572" y="272"/>
      <point x="572" y="243" type="curve"/>
    </contour>
  </outline>
</glyph>
<glyph name="K.alt" format="1">
  <advance width="804"/>
  <outline>
    <contour>
      <point x="583" y="0" type="line"/>
      <point x="706" y="20" type="line"/>
      <point x="742" y="40" type="line"/>
      <point x="448" y="432" type="line"/>
      <point x="403" y="348" type="line"/>
      <point x="679" y="662" type="line"/>
      <point x="666" y="689" type="line"/>
      <point x="630" y="710" type="line"/>
      <point x="326" y="365" type="line"/>
      <point x="330" y="344" type="line"/>
    </contour>
    <contour>
      <point x="121" y="0" type="line"/>
      <point x="294" y="0" type="line"/>
      <point x="294" y="710" type="line"/>
      <point x="121" y="710" type="line"/>
    </contour>
    <contour>
      <point x="40" y="710" type="line"/>
      <point x="40" y="650" type="line"/>
      <point x="44" y="650" type="line" smooth="yes"/>
      <point x="84" y="649"/>
      <point x="121" y="643"/>
      <point x="121" y="614" type="curve"/>
      <point x="294" y="640" type="line"/>
      <point x="294" y="647"/>
      <point x="339" y="649"/>
      <point x="364" y="650" type="curve" smooth="yes"/>
      <point x="368" y="650" type="line"/>
      <point x="368" y="710" type="line"/>
    </contour>
    <contour>
      <point x="732" y="710" type="line"/>
      <point x="479" y="710" type="line"/>
      <point x="479" y="650" type="line"/>
      <point x="484" y="650" type="line" smooth="yes"/>
      <point x="524" y="649"/>
      <point x="560" y="640"/>
      <point x="560" y="633" type="curve"/>
      <point x="628" y="604" type="line"/>
      <point x="655" y="635"/>
      <point x="679" y="649"/>
      <point x="726" y="650" type="curve" smooth="yes"/>
      <point x="732" y="650" type="line"/>
    </contour>
    <contour>
      <point x="40" y="0" type="line"/>
      <point x="368" y="0" type="line"/>
      <point x="368" y="60" type="line"/>
      <point x="364" y="60" type="line" smooth="yes"/>
      <point x="339" y="61"/>
      <point x="294" y="63"/>
      <point x="294" y="70" type="curve"/>
      <point x="121" y="96" type="line"/>
      <point x="121" y="67"/>
      <point x="84" y="61"/>
      <point x="44" y="60" type="curve" smooth="yes"/>
      <point x="40" y="60" type="line"/>
    </contour>
    <contour>
      <point x="790" y="0" type="line"/>
      <point x="790" y="60" type="line"/>
      <point x="785" y="60" type="line" smooth="yes"/>
      <point x="743" y="61"/>
      <point x="722" y="67"/>
      <point x="699" y="98" type="curve"/>
      <point x="530" y="70" type="line"/>
      <point x="530" y="63"/>
      <point x="484" y="61"/>
      <point x="459" y="60" type="curve" smooth="yes"/>
      <point x="454" y="60" type="line"/>
      <point x="454" y="0" type="line"/>
    </contour>
    <contour>
      <point x="264" y="392" type="line"/>
      <point x="264" y="326" type="line"/>
      <point x="374" y="326" type="line"/>
      <point x="374" y="392" type="line"/>
    </contour>
  </outline>
</glyph>
<glyph name="Q.alt2" format="1">
  <advance width="832"/>
  <outline>
    <contour>
      <point x="416" y="-11" type="curve" smooth="yes"/>
      <point x="635" y="-11"/>
      <point x="790" y="138"/>
      <point x="790" y="355" type="curve" smooth="yes"/>
      <point x="790" y="573"/>
      <point x="635" y="721"/>
      <point x="416" y="721" type="curve" smooth="yes"/>
      <point x="197" y="721"/>
      <point x="42" y="573"/>
      <point x="42" y="355" type="curve" smooth="yes"/>
      <point x="42" y="138"/>
      <point x="197" y="-11"/>
    </contour>
    <contour>
      <point x="416" y="65" type="curve" smooth="yes"/>
      <point x="305" y="65"/>
      <point x="232" y="175"/>
      <point x="232" y="355" type="curve" smooth="yes"/>
      <point x="232" y="535"/>
      <point x="305" y="645"/>
      <point x="416" y="645" type="curve" smooth="yes"/>
      <point x="527" y="645"/>
      <point x="600" y="535"/>
      <point x="600" y="355" type="curve" smooth="yes"/>
      <point x="600" y="175"/>
      <point x="527" y="65"/>
    </contour>
    <contour>
      <point x="225" y="-188" type="curve"/>
      <point x="283" y="-205" type="line"/>
      <point x="307" y="-149"/>
      <point x="346" y="-120"/>
      <point x="407" y="-120" type="curve" smooth="yes"/>
      <point x="484" y="-120"/>
      <point x="596" y="-167"/>
      <point x="737" y="-237" type="curve"/>
      <point x="769" y="-103" type="line"/>
      <point x="646" y="-63"/>
      <point x="533" y="-40"/>
      <point x="446" y="-40" type="curve" smooth="yes"/>
      <point x="331" y="-40"/>
      <point x="266" y="-86"/>
    </contour>
  </outline>
</glyph>
<glyph name="c.alt" format="1">
  <advance width="615"/>
  <outline>
    <contour>
      <point x="572" y="342" type="line"/>
      <point x="552" y="461"/>
      <point x="457" y="539"/>
      <point x="323" y="539" type="curve" smooth="yes"/>
      <point x="175" y="539"/>
      <point x="52" y="425"/>
      <point x="52" y="264" type="curve" smooth="yes"/>
      <point x="52" y="104"/>
      <point x="174" y="-12"/>
      <point x="330" y="-12" type="curve" smooth="yes"/>
      <point x="444" y="-12"/>
      <point x="530" y="46"/>
      <point x="565" y="142" type="curve"/>
      <point x="498" y="145" type="line"/>
      <point x="468" y="84"/>
      <point x="416" y="44"/>
      <point x="333" y="44" type="curve" smooth="yes"/>
      <point x="220" y="44"/>
      <point x="146" y="132"/>
      <point x="146" y="264" type="curve" smooth="yes"/>
      <point x="146" y="396"/>
      <point x="221" y="482"/>
      <point x="323" y="482" type="curve" smooth="yes"/>
      <point x="409" y="482"/>
      <point x="458" y="422"/>
      <point x="473" y="342" type="curve"/>
    </contour>
  </outline>
</glyph>
<glyph name="five.alt3" format="1">
  <advance width="650"/>
  <outline>
    <contour>
      <point x="476" y="611" type="line"/>
      <point x="476" y="611" type="line"/>
      <point x="476" y="534" type="line"/>
      <point x="573" y="534" type="line"/>
      <point x="573" y="720" type="line"/>
      <point x="137" y="720" type="line"/>
      <point x="76" y="407" type="line"/>
      <point x="76" y="351" type="line"/>
      <point x="246" y="351" type="line" smooth="yes"/>
      <point x="381" y="351"/>
      <point x="448" y="313"/>
      <point x="448" y="221" type="curve" smooth="yes"/>
      <point x="448" y="133"/>
      <point x="400" y="92"/>
      <point x="331" y="92" type="curve" smooth="yes"/>
      <point x="258" y="92"/>
      <point x="211" y="129"/>
      <point x="200" y="223" type="curve"/>
      <point x="32" y="223" type="line"/>
      <point x="51" y="67"/>
      <point x="166" y="-10"/>
      <point x="332" y="-10" type="curve" smooth="yes"/>
      <point x="484" y="-10"/>
      <point x="613" y="67"/>
      <point x="613" y="220" type="curve" smooth="yes"/>
      <point x="613" y="359"/>
      <point x="501" y="446"/>
      <point x="289" y="446" type="curve" smooth="yes"/>
      <point x="141" y="446" type="line"/>
      <point x="199" y="405" type="line"/>
      <point x="251" y="669" type="line"/>
      <point x="198" y="611" type="line"/>
    </contour>
  </outline>
</glyph>
<glyph name="four.old" format="1">
  <advance width="644"/>
  <outline>
    <contour>
      <point x="253" y="-94" type="line"/>
      <point x="253" y="-182" type="line"/>
      <point x="614" y="-182" type="line"/>
      <point x="614" y="-94" type="line"/>
      <point x="513" y="-94" type="line"/>
      <point x="513" y="-94" type="line"/>
      <point x="355" y="-94" type="line"/>
      <point x="355" y="-94" type="line"/>
    </contour>
    <contour>
      <point x="355" y="528" type="line"/>
      <point x="355" y="-182" type="line"/>
      <point x="513" y="-182" type="line"/>
      <point x="513" y="528" type="line"/>
    </contour>
    <contour>
      <point x="24" y="16" type="line"/>
      <point x="624" y="16" type="line"/>
      <point x="624" y="102" type="line"/>
      <point x="94" y="102" type="line"/>
      <point x="110" y="62" type="line"/>
      <point x="408" y="484" type="line"/>
      <point x="444" y="528" type="line"/>
      <point x="328" y="528" type="line"/>
      <point x="24" y="93" type="line"/>
    </contour>
  </outline>
</glyph>
<glyph name="s.srf" format="1">
  <advance width="555"/>
  <outline>
    <contour>
      <point x="281" y="49" type="curve" smooth="yes"/>
      <point x="200" y="49"/>
      <point x="141" y="96"/>
      <point x="117" y="174" type="curve"/>
      <point x="35" y="174" type="line"/>
      <point x="35" y="0" type="line"/>
      <point x="96" y="0" type="line"/>
      <point x="115" y="124" type="line"/>
      <point x="113" y="125"/>
      <point x="76" y="147"/>
      <point x="71" y="149" type="curve"/>
      <point x="98" y="38"/>
      <point x="192" y="-11"/>
      <point x="300" y="-11" type="curve"/>
      <point x="440" y="-11"/>
      <point x="524" y="54"/>
      <point x="524" y="164" type="curve" smooth="yes"/>
      <point x="524" y="286"/>
      <point x="426" y="314"/>
      <point x="336" y="334" type="curve" smooth="yes"/>
      <point x="259" y="351"/>
      <point x="190" y="359"/>
      <point x="190" y="422" type="curve" smooth="yes"/>
      <point x="190" y="464"/>
      <point x="216" y="493"/>
      <point x="271" y="493" type="curve" smooth="yes"/>
      <point x="335" y="493"/>
      <point x="380" y="454"/>
      <point x="405" y="391" type="curve"/>
      <point x="485" y="391" type="line"/>
      <point x="485" y="544" type="line"/>
      <point x="428" y="544" type="line"/>
      <point x="408" y="444" type="line"/>
      <point x="410" y="440"/>
      <point x="446" y="416"/>
      <point x="448" y="414" type="curve"/>
      <point x="432" y="480"/>
      <point x="371" y="553"/>
      <point x="249" y="553" type="curve" smooth="yes"/>
      <point x="129" y="553"/>
      <point x="46" y="491"/>
      <point x="46" y="388" type="curve" smooth="yes"/>
      <point x="46" y="268"/>
      <point x="146" y="239"/>
      <point x="234" y="218" type="curve" smooth="yes"/>
      <point x="309" y="201"/>
      <point x="377" y="190"/>
      <point x="377" y="128" type="curve" smooth="yes"/>
      <point x="377" y="75"/>
      <point x="339" y="49"/>
    </contour>
  </outline>
</glyph>
<glyph name="seven.oldalt" format="1">
  <advance width="585"/>
  <outline>
    <contour>
      <point x="134" y="-182" type="line"/>
      <point x="429" y="439" type="line"/>
      <point x="445" y="417" type="line"/>
      <point x="145" y="417" type="line"/>
      <point x="145" y="417" type="line"/>
      <point x="145" y="297" type="line"/>
      <point x="44" y="297" type="line"/>
      <point x="44" y="528" type="line"/>
      <point x="553" y="528" type="line"/>
      <point x="553" y="427" type="line"/>
      <point x="311" y="-182" type="line"/>
    </contour>
  </outline>
</glyph>
